<?xml version="1.0" encoding="utf-8"?>
<!-- Generator: Adobe Illustrator 19.1.0, SVG Export Plug-In . SVG Version: 6.00 Build 0)  -->
<svg version="1.1" id="Layer_1" xmlns="http://www.w3.org/2000/svg" xmlns:xlink="http://www.w3.org/1999/xlink" x="0px" y="0px"
	 width="32px" height="32px" viewBox="-215 307 180 180" style="enable-background:new -215 307 180 180;" xml:space="preserve">
<style type="text/css">
	.st0{fill:none;}
	.st1{fill:#329746;}
</style>
<g>
	<polygon class="st0" points="-129.2,374.5 -137.9,374.5 -137.9,420.2 -113.5,420.2 -113.5,413.1 -129.2,413.1 	"/>
	<path class="st0" d="M-152.4,404.2c3.1-3.8,5.1-6.9,6.3-9.3c1.2-2.3,1.8-4.9,1.8-7.8c0-4.3-1-7.6-3.3-10c-2.3-2.4-5.4-3.6-9.5-3.6
		c-4,0-7.1,1.5-9.4,4.3c-2.4,2.8-3.5,6.5-3.5,10.8h8.7c0-2.4,0.3-4.2,1-5.7c0.7-1.5,1.7-2.2,3.1-2.2c1.2,0,2.3,0.7,2.9,1.8
		c0.7,1.1,1,2.7,1,4.8c0,1.5-0.3,3.1-1,4.8c-0.7,1.7-1.8,3.7-3.4,6.1l-11.9,15.8v6.1h25.8h0.2v-7.5h-14.5L-152.4,404.2z"/>
	<path class="st0" d="M-97.2,374.5h-11.5v45.7h11.4c5.8,0,10.1-1.6,13-4.6c2.9-3.1,4.4-7.8,4.4-14.3v-7.9c0-6.5-1.5-11.2-4.4-14.3
		C-87.2,376.1-91.5,374.5-97.2,374.5z M-88.5,401.4c0,4.3-0.7,7.4-1.9,9.1c-1.2,1.7-3.7,2.6-7.2,2.6h-2.2v-31.5h2.3
		c3.5,0,5.9,0.9,7.1,2.7c1.2,1.7,1.9,4.8,1.9,9.1V401.4z"/>
	<path class="st1" d="M-125,307c-49.7,0-90,40.3-90,90s40.3,90,90,90s90-40.3,90-90S-75.3,307-125,307z M-143.5,420.2h-0.2h-25.8
		v-6.1l11.9-15.8c1.6-2.4,2.7-4.4,3.4-6.1c0.7-1.7,1-3.3,1-4.8c0-2-0.3-3.6-1-4.8s-1.7-1.8-2.9-1.8c-1.4,0-2.4,0.7-3.1,2.2
		c-0.7,1.5-1,3.3-1,5.7h-8.7c0-4.3,1.1-7.9,3.5-10.8c2.3-2.8,5.4-4.3,9.4-4.3c4.1,0,7.2,1.2,9.5,3.6c2.3,2.4,3.3,5.7,3.3,10
		c0,2.9-0.6,5.5-1.8,7.8c-1.2,2.4-3.3,5.4-6.3,9.3l-5.5,8.5h14.5V420.2z M-113.5,420.2h-24.5v-45.7h8.7v38.6h15.7
		C-113.5,413.1-113.5,420.2-113.5,420.2z M-79.8,401.3c0,6.5-1.5,11.2-4.4,14.3c-2.9,3.1-7.2,4.6-13,4.6h-11.4v-45.7h11.5
		c5.7,0,10,1.6,12.9,4.6c2.9,3.1,4.4,7.8,4.4,14.3V401.3z"/>
	<path class="st1" d="M-97.6,381.6h-2.3v31.5h2.2c3.5,0,6-0.9,7.2-2.6c1.2-1.7,1.9-4.8,1.9-9.1v-8c0-4.3-0.7-7.4-1.9-9.1
		C-91.7,382.5-94.1,381.6-97.6,381.6z"/>
</g>
</svg>
